<svg width="512" height="512" viewBox="0 0 96 96" fill="none" xmlns="http://www.w3.org/2000/svg" role="img" aria-labelledby="title desc">
  <title id="title">Avala OS app icon</title>
  <desc id="desc">Metallic A diamond mark on a navy rounded square.</desc>
  <defs>
    <linearGradient id="gold" x1="10" y1="84" x2="68" y2="8" gradientUnits="userSpaceOnUse"><stop stop-color="#9A5F00"/><stop offset=".48" stop-color="#E4B04B"/><stop offset="1" stop-color="#FFF0BD"/></linearGradient>
    <linearGradient id="silver" x1="45" y1="8" x2="84" y2="88" gradientUnits="userSpaceOnUse"><stop stop-color="#FFF"/><stop offset=".48" stop-color="#DCE3EA"/><stop offset="1" stop-color="#7D8FA3"/></linearGradient>
  </defs>
  <rect width="96" height="96" rx="25" fill="#001B30"/><rect x="2" y="2" width="92" height="92" rx="23" stroke="#164F73" stroke-width="2"/>
  <g transform="translate(15 12)"><path d="M0 72L34 0H48L15 72H0Z" fill="url(#gold)"/><path d="M44 0L78 72H62L36 16L44 0Z" fill="url(#silver)"/><path d="M36 43C37.4 49 41.5 53.1 47.5 54.5C41.5 55.9 37.4 60 36 66C34.6 60 30.5 55.9 24.5 54.5C30.5 53.1 34.6 49 36 43Z" fill="#E4B04B"/></g>
</svg>
